<?xml version="1.0"?>
<svg version="1.0" xmlns="http://www.w3.org/2000/svg" width="855pt" height="811pt" viewBox="0 0 855 811" preserveAspectRatio="xMidYMid meet">
<g transform="translate(0,811) scale(0.1,-0.1)" fill="#00693A" stroke="none">
<path d="M3875 8100 c-346 -36 -593 -90 -880 -192 -722 -259 -1343 -771 -1754&#xA;-1449 -411 -677 -558 -1487 -420 -2309 11 -69 27 -143 35 -165 7 -21 12 -41&#xA;10 -42 -2 -2 -15 14 -29 36 -38 58 -153 170 -226 220 l-64 44 7 -84 c12 -157&#xA;66 -326 141 -445 21 -34 111 -133 208 -229 143 -142 180 -184 218 -252 26 -46&#xA;43 -83 38 -83 -4 0 -13 9 -18 19 -16 30 -126 108 -205 145 -77 37 -214 82&#xA;-222 73 -3 -3 7 -34 22 -69 116 -261 276 -420 558 -553 112 -53 122 -59 216&#xA;-157 54 -57 97 -104 95 -106 -1 -1 -36 15 -76 37 -41 22 -108 49 -149 60 -75&#xA;21 -296 48 -307 38 -9 -10 86 -125 156 -188 87 -78 164 -130 272 -184 104 -53&#xA;176 -77 333 -112 95 -21 135 -35 186 -66 68 -42 190 -126 190 -132 0 -2 -26 6&#xA;-57 17 -137 48 -328 66 -488 47 l-109 -12 52 -48 c72 -66 209 -155 292 -191&#xA;141 -59 203 -69 480 -78 270 -9 327 -18 461 -73 l57 -23 -143 -1 c-204 -1&#xA;-377 -35 -493 -96 l-44 -23 59 -31 c146 -77 333 -119 488 -109 112 7 259 44&#xA;385 98 100 43 113 45 198 27 l53 -11 -39 -28 c-84 -61 -332 -284 -332 -298 0&#xA;-14 126 -112 144 -112 3 0 33 37 67 83 63 82 263 289 309 320 23 14 34 14 118&#xA;2 272 -41 669 -45 931 -10 67 9 134 14 147 11 35 -9 239 -217 313 -318 35 -49&#xA;66 -88 70 -88 20 0 151 104 151 120 0 8 -241 220 -313 276 -26 21 -44 41 -40&#xA;45 4 4 31 12 59 18 49 10 55 9 155 -35 194 -85 252 -98 434 -98 186 -1 254 14&#xA;414 91 94 45 95 46 69 59 -45 24 -177 64 -273 84 -62 13 -141 21 -234 22 -159&#xA;3 -159 3 4 60 l110 38 190 0 c295 0 433 25 598 106 114 56 301 192 286 208 -3&#xA;3 -56 10 -118 15 -128 12 -290 -3 -425 -38 -44 -12 -81 -19 -83 -17 -6 6 108&#xA;85 186 130 48 28 97 44 200 67 170 38 324 99 438 175 86 57 277 236 303 283&#xA;l12 24 -98 -7 c-158 -12 -249 -36 -423 -113 -8 -4 23 37 69 89 l82 96 162 80&#xA;c234 118 329 197 442 369 38 59 111 220 102 228 -2 2 -33 -5 -71 -15 -101 -27&#xA;-224 -90 -300 -154 l-68 -58 43 83 c36 69 61 100 158 193 186 179 231 227 275&#xA;296 89 139 125 260 125 418 l0 93 -80 -62 c-92 -71 -168 -151 -206 -215 -31&#xA;-53 -38 -53 -20 1 25 74 65 323 82 507 51 578 -59 1185 -312 1708 -164 339&#xA;-397 664 -677 942 -268 267 -527 453 -872 628 -353 179 -674 280 -1055 331&#xA;-168 23 -591 33 -735 19z m523 -111 c572 -40 1093 -222 1592 -555 482 -321&#xA;917 -840 1164 -1390 132 -294 211 -589 257 -964 19 -155 17 -543 -5 -719 -75&#xA;-622 -333 -1236 -711 -1696 -110 -134 -363 -379 -505 -489 -280 -217 -571&#xA;-382 -880 -498 -122 -46 -364 -113 -443 -123 -55 -7 -56 -7 -189 68 -73 42&#xA;-185 99 -248 127 -115 52 -146 70 -120 70 7 0 65 21 128 46 137 55 135 55 328&#xA;-17 158 -58 239 -79 309 -79 59 0 212 33 252 53 l27 15 -55 28 c-152 79 -216&#xA;96 -366 98 -61 0 -109 4 -105 7 12 11 228 69 279 75 37 5 70 -1 147 -26 160&#xA;-52 271 -51 440 2 68 21 187 86 193 105 2 6 -32 18 -76 27 -121 26 -334 21&#xA;-433 -10 -10 -3 -18 -1 -18 3 0 5 48 30 108 56 185 80 184 80 328 78 211 -2&#xA;343 44 492 170 101 86 101 89 -12 89 -111 0 -218 -25 -329 -77 -42 -20 -79&#xA;-34 -81 -32 -5 4 82 77 158 133 58 42 107 61 246 95 178 44 256 85 355 185 44&#xA;45 94 107 112 139 l32 57 -27 -6 c-142 -32 -264 -86 -361 -160 -106 -81 -107&#xA;-81 -96 -64 5 8 54 66 108 128 l100 113 141 69 c162 78 241 138 302 228 44 63&#xA;100 214 83 220 -15 6 -156 -64 -210 -104 -26 -19 -78 -71 -115 -114 -37 -44&#xA;-69 -79 -70 -77 -9 8 63 127 119 197 68 86 121 183 144 265 25 94 11 312 -21&#xA;302 -6 -2 -37 -35 -70 -73 -103 -122 -141 -228 -163 -454 -7 -71 -18 -113 -41&#xA;-166 -33 -75 -112 -217 -117 -212 -2 2 7 41 21 86 53 186 59 337 17 505 -14&#xA;59 -30 104 -34 100 -16 -16 -71 -157 -90 -232 -26 -98 -27 -233 -4 -374 21&#xA;-126 17 -150 -44 -245 -40 -62 -245 -281 -254 -272 -3 3 17 38 44 79 63 96&#xA;105 199 120 292 12 74 7 218 -9 273 -8 29 -8 29 -59 -50 -119 -186 -151 -276&#xA;-163 -459 -5 -71 -14 -147 -20 -169 -15 -51 -81 -120 -188 -196 -88 -62 -203&#xA;-127 -201 -113 0 5 29 32 64 61 146 120 236 318 235 514 l-1 63 -104 -108&#xA;c-128 -132 -175 -217 -206 -372 -37 -186 -50 -205 -202 -281 -99 -50 -247&#xA;-108 -247 -96 0 4 21 20 46 36 25 16 83 64 129 107 64 61 91 95 118 151 34 69&#xA;91 242 85 260 -6 17 -177 -109 -255 -188 -74 -75 -89 -98 -148 -218 -43 -89&#xA;-77 -144 -99 -164 -40 -35 -109 -62 -243 -96 -173 -44 -177 -41 -48 26 164 85&#xA;233 154 310 311 30 62 51 113 45 115 -15 5 -191 -81 -256 -126 -77 -52 -158&#xA;-138 -224 -234 -84 -124 -104 -138 -289 -199 l-162 -54 -161 55 c-89 30 -175&#xA;64 -192 75 -17 12 -72 74 -121 140 -54 71 -117 141 -155 172 -59 48 -240 150&#xA;-297 167 -22 7 -22 7 -8 -34 28 -81 96 -196 142 -244 63 -64 114 -98 236 -157&#xA;56 -27 97 -49 92 -49 -19 0 -189 39 -255 59 -170 52 -172 53 -247 208 -66 137&#xA;-119 211 -207 289 -64 56 -202 154 -217 154 -9 0 6 -65 32 -143 51 -152 124&#xA;-248 272 -359 43 -32 74 -58 68 -58 -28 0 -145 47 -243 97 -143 73 -151 85&#xA;-193 279 -16 78 -35 136 -61 185 -38 73 -179 240 -229 273 l-28 18 8 -103 c13&#xA;-197 76 -333 208 -452 42 -38 75 -72 73 -74 -14 -15 -225 124 -304 200 -72 69&#xA;-83 102 -93 262 -9 157 -26 226 -87 345 -44 86 -111 190 -123 190 -10 0 -24&#xA;-139 -23 -236 2 -118 54 -257 139 -368 20 -26 34 -51 30 -54 -9 -9 -216 207&#xA;-256 268 -64 97 -65 109 -39 266 26 159 24 264 -10 382 -25 89 -72 212 -81&#xA;212 -8 0 -45 -127 -59 -199 -22 -119 3 -346 52 -460 29 -69 14 -59 -33 20 -88&#xA;152 -111 219 -125 377 -7 78 -20 171 -29 205 -21 85 -75 189 -142 275 -64 81&#xA;-67 81 -90 -18 -27 -115 -8 -261 50 -390 23 -51 75 -127 146 -210 17 -19 42&#xA;-62 56 -95 29 -67 29 -68 -59 39 -21 26 -71 72 -111 101 -82 61 -203 130 -212&#xA;122 -3 -4 6 -44 20 -90 30 -93 83 -181 148 -244 54 -51 182 -129 268 -163 43&#xA;-17 80 -41 115 -75 69 -68 199 -215 194 -220 -2 -2 -24 12 -48 32 -75 59 -159&#xA;111 -219 134 -49 18 -194 58 -213 59 -18 0 74 -132 133 -191 94 -95 165 -131&#xA;341 -173 81 -19 162 -42 180 -50 18 -7 80 -51 138 -96 58 -45 115 -87 128 -93&#xA;12 -5 22 -14 22 -19 0 -4 -48 16 -107 46 -131 65 -218 86 -355 86 l-103 -1 71&#xA;-67 c85 -80 156 -124 256 -159 66 -24 90 -26 238 -29 92 -1 178 -7 195 -14 59&#xA;-22 275 -123 271 -127 -2 -2 -45 4 -97 13 -110 19 -326 15 -399 -8 l-45 -14&#xA;44 -32 c63 -46 134 -77 231 -102 113 -29 225 -23 365 20 79 25 111 30 150 25&#xA;56 -7 273 -60 282 -69 4 -3 -30 -6 -74 -6 -125 0 -221 -23 -342 -81 l-106 -51&#xA;34 -15 c74 -31 158 -47 251 -47 108 0 160 13 324 81 152 62 178 64 301 18 170&#xA;-64 172 -50 -20 -144 -92 -44 -207 -104 -255 -131 -48 -28 -99 -50 -114 -50&#xA;-14 0 -66 9 -114 20 -292 65 -642 206 -907 365 -221 133 -490 350 -685 551&#xA;-160 166 -239 264 -355 444 -274 426 -424 831 -506 1360 -31 196 -34 662 -6&#xA;865 104 750 411 1360 961 1910 419 418 914 694 1509 840 329 81 674 110 1025&#xA;84z m-3562 -4217 c110 -173 127 -202 117 -202 -8 0 -31 36 -133 200 -25 41&#xA;-54 87 -64 103 -10 15 -14 27 -10 27 5 0 45 -58 90 -128z m6708 86 c-4 -7 -36&#xA;-60 -72 -118 -36 -58 -73 -118 -83 -135 -10 -16 -19 -24 -19 -18 0 15 109 202&#xA;146 251 25 31 42 44 28 20z m-6260 -967 c11 -12 14 -21 8 -21 -6 0 -75 63&#xA;-154 141 l-143 141 135 -120 c74 -66 144 -129 154 -141z m5996 205 c0 -1 -28&#xA;-25 -62 -52 -35 -27 -96 -77 -135 -112 -93 -80 -95 -65 -4 20 75 69 201 160&#xA;201 144z m-5620 -757 c80 -38 146 -73 148 -79 3 -9 -105 39 -268 120 -47 23&#xA;-71 39 -55 35 17 -3 95 -37 175 -76z m5075 25 c-60 -31 -134 -69 -164 -86 -30&#xA;-17 -51 -24 -49 -16 6 16 276 157 303 158 11 0 -29 -25 -90 -56z m-4539 -514&#xA;c180 -33 218 -42 234 -52 11 -6 6 -8 -15 -4 -16 3 -75 12 -130 21 -55 8 -135&#xA;21 -177 30 -43 8 -84 12 -92 9 -8 -3 -17 -1 -21 5 -10 17 81 13 201 -9z m4089&#xA;10 c-33 -13 -362 -70 -409 -70 -44 0 -2 12 105 30 63 11 148 26 189 34 87 16&#xA;148 20 115 6z m-1942 -178 c165 -83 281 -152 271 -162 -28 -26 -512 -39 -738&#xA;-19 -201 17 -199 14 -71 91 128 76 176 101 259 134 90 36 132 29 279 -44z&#xA;m-1204 -176 c-5 -6 -178 -32 -264 -41 -33 -3 -76 -8 -95 -11 -75 -10 9 15 102&#xA;30 141 23 269 34 257 22z m2154 -6 c145 -21 262 -43 249 -48 -18 -6 -333 38&#xA;-352 49 -21 12 13 12 103 -1z"></path>
<path d="M4290 7765 c0 -9 11 -20 24 -25 13 -5 27 -13 30 -18 3 -6 -3 -91 -15&#xA;-190 -27 -237 -18 -272 84 -323 64 -33 151 -36 207 -7 75 38 102 91 134 258&#xA;31 165 45 200 81 200 18 0 25 5 25 18 0 19 -42 32 -152 48 -41 5 -48 4 -48&#xA;-10 0 -9 11 -21 24 -25 13 -5 26 -17 30 -26 7 -20 -31 -263 -50 -319 -23 -65&#xA;-59 -96 -111 -96 -63 0 -100 22 -114 68 -9 31 -6 67 16 207 14 93 31 175 37&#xA;182 6 7 19 13 29 13 12 0 19 7 19 18 0 16 -14 20 -107 30 -137 15 -143 15&#xA;-143 -3z"></path>
<path d="M3733 7740 c-103 -21 -113 -25 -113 -46 0 -10 6 -13 18 -10 41 13 52&#xA;-12 87 -214 41 -227 41 -236 15 -252 -25 -16 -28 -52 -2 -44 14 5 174 33 350&#xA;62 l33 5 -2 75 c-3 64 -6 74 -21 74 -11 0 -23 -11 -28 -27 -20 -56 -34 -73&#xA;-64 -82 -51 -17 -113 -24 -119 -14 -11 18 -59 318 -60 377 -2 56 0 61 25 73&#xA;31 16 28 43 -6 42 -11 0 -63 -9 -113 -19z"></path>
<path d="M3355 7654 c-141 -29 -207 -57 -261 -111 -135 -134 -102 -379 61&#xA;-458 125 -62 268 -34 388 74 39 35 40 38 21 129 -7 36 -32 25 -54 -25 -27 -61&#xA;-46 -82 -95 -104 -49 -23 -116 -24 -156 -4 -33 18 -92 104 -115 167 -8 22 -14&#xA;65 -14 95 0 49 4 58 38 93 25 27 52 43 85 52 46 12 51 11 104 -17 71 -38 66&#xA;-36 82 -26 12 8 9 20 -14 75 -15 36 -33 65 -39 65 -6 -1 -20 -3 -31 -5z"></path>
<path d="M5106 7625 c-3 -9 4 -21 19 -31 14 -9 25 -22 25 -29 0 -27 -143 -378&#xA;-161 -396 -14 -14 -27 -17 -44 -13 -19 5 -25 2 -25 -10 0 -32 282 -146 361&#xA;-146 82 0 140 45 154 121 8 46 -8 85 -52 125 l-37 34 38 0 c72 0 116 42 116&#xA;113 0 45 -32 93 -86 127 -35 22 -278 120 -298 120 -2 0 -6 -7 -10 -15z m235&#xA;-128 c63 -42 60 -125 -5 -156 -25 -12 -36 -11 -82 3 l-53 17 20 47 c11 26 27&#xA;62 34 80 17 38 39 41 86 9z m-71 -226 c31 -26 35 -34 34 -75 0 -36 -6 -52 -29&#xA;-76 -15 -16 -40 -32 -55 -35 -32 -7 -110 21 -110 39 0 7 12 41 26 77 15 35 30&#xA;75 35 88 8 19 14 22 37 16 15 -3 43 -19 62 -34z"></path>
<path d="M5932 7207 c-7 -8 -6 -18 4 -31 8 -11 14 -27 14 -36 0 -8 -50 -74&#xA;-111 -145 -62 -72 -118 -146 -126 -165 -32 -74 -1 -150 90 -224 31 -25 49 -31&#xA;101 -34 86 -6 119 14 237 136 52 54 107 107 122 117 26 16 28 16 53 0 23 -15&#xA;28 -15 41 -3 12 13 5 23 -57 81 -39 37 -75 67 -80 67 -16 0 -20 -18 -11 -43 8&#xA;-21 5 -33 -20 -67 -48 -66 -175 -195 -212 -215 -44 -23 -95 -14 -136 24 -40&#xA;37 -41 81 -4 130 54 72 206 243 221 248 8 4 24 1 35 -6 15 -10 22 -10 31 -1 8&#xA;9 -6 28 -58 76 -96 90 -121 107 -134 91z"></path>
<path d="M2262 7150 c-94 -72 -104 -82 -96 -103 5 -15 8 -15 30 0 23 15 26 14&#xA;51 -8 48 -45 253 -328 253 -350 0 -13 -8 -31 -17 -41 -12 -14 -14 -21 -5 -30&#xA;14 -14 36 0 132 82 48 42 67 65 63 76 -5 15 -18 15 -53 0 -12 -5 -49 38 -143&#xA;167 -69 95 -129 181 -133 191 -4 10 0 24 10 35 14 15 14 20 2 30 -11 9 -30 -1&#xA;-94 -49z"></path>
<path d="M3945 7013 c-385 -33 -741 -156 -1050 -361 -572 -380 -925 -946&#xA;-1021 -1637 -13 -94 -15 -167 -11 -340 6 -267 32 -421 108 -652 117 -351 296&#xA;-641 559 -903 193 -193 371 -318 625 -441 334 -161 689 -237 1060 -226 625 18&#xA;1152 249 1590 699 133 135 180 194 278 343 432 661 486 1532 138 2240 -119&#xA;241 -262 437 -454 621 -403 389 -864 606 -1392 654 -103 9 -339 11 -430 3z&#xA;m530 -112 c418 -74 752 -225 1070 -486 447 -367 712 -851 785 -1430 26 -202&#xA;10 -524 -36 -725 -136 -596 -495 -1087 -1029 -1407 -265 -159 -573 -261 -884&#xA;-294 -157 -16 -434 -7 -581 20 -704 130 -1284 552 -1599 1164 -266 518 -312&#xA;1111 -130 1672 44 138 160 381 241 505 207 320 511 593 858 769 252 128 478&#xA;193 820 235 85 10 370 -3 485 -23z"></path>
<path d="M4101 6479 c-80 -59 -266 -145 -437 -202 -294 -98 -481 -127 -815&#xA;-127 l-220 0 4 -942 c3 -678 7 -960 16 -1003 40 -200 120 -392 233 -557 82&#xA;-122 309 -349 448 -450 181 -131 443 -278 732 -412 l98 -45 267 133 c422 210&#xA;592 323 793 526 223 224 354 457 427 755 15 63 17 168 20 1035 l4 965 -153 -3&#xA;c-451 -10 -1035 131 -1294 312 -36 26 -68 46 -73 46 -4 0 -26 -14 -50 -31z&#xA;m118 -139 c283 -168 730 -283 1161 -299 l175 -6 3 -815 c2 -521 -1 -853 -8&#xA;-920 -31 -309 -171 -592 -414 -836 -177 -176 -392 -315 -776 -501 l-206 -99&#xA;-94 46 c-362 177 -527 271 -682 388 -289 217 -475 461 -572 753 -55 165 -56&#xA;178 -56 1120 l0 869 163 0 c266 0 531 46 812 141 150 50 319 127 385 173 19&#xA;14 36 25 38 26 2 0 34 -18 71 -40z"></path>
<path d="M4083 5987 c-56 -61 -113 -156 -113 -190 0 -22 -9 -21 -40 3 -14 11&#xA;-28 20 -32 20 -23 0 -89 -155 -111 -263 l-12 -57 -37 25 c-20 14 -41 25 -46&#xA;25 -17 0 -46 -181 -45 -277 l1 -92 -29 14 c-15 8 -31 15 -35 15 -4 0 -5 -42&#xA;-2 -93 8 -142 36 -198 147 -286 135 -108 208 -192 295 -344 32 -56 75 -166 86&#xA;-222 5 -25 8 43 9 186 l1 225 -51 65 c-29 35 -73 87 -98 114 -85 91 -161 223&#xA;-161 278 0 16 8 9 28 -28 51 -92 94 -146 188 -239 l94 -92 2 146 c1 80 2 162&#xA;4 182 2 31 -6 47 -47 99 -28 34 -60 82 -73 108 -24 48 -60 160 -53 167 2 2 24&#xA;-38 50 -89 25 -50 61 -110 79 -131 l34 -39 18 294 c10 162 21 298 25 302 10&#xA;10 21 -221 21 -438 l1 -160 43 48 c43 48 106 162 106 192 0 8 5 15 11 15 13 0&#xA;5 -41 -22 -120 -20 -58 -73 -141 -114 -180 -25 -23 -25 -24 -25 -207 l0 -184&#xA;95 93 c106 103 154 169 196 267 35 81 39 48 5 -43 -33 -91 -77 -160 -164 -258&#xA;-41 -45 -87 -102 -103 -125 l-29 -42 1 -243 0 -243 18 70 c58 221 170 394 361&#xA;560 110 95 134 130 156 234 15 71 19 161 7 161 -5 -1 -19 -7 -33 -15 -14 -8&#xA;-29 -14 -33 -15 -5 0 -5 31 -2 68 7 67 -17 263 -36 293 -6 11 -18 6 -53 -19&#xA;l-46 -32 0 31 c0 40 -51 191 -85 252 l-27 47 -33 -20 c-39 -24 -45 -25 -45 -5&#xA;0 32 -62 136 -116 194 -31 34 -60 61 -64 61 -4 0 -34 -28 -67 -63z"></path>
<path d="M3195 4916 c2 -20 0 -36 -3 -36 -4 0 -36 5 -72 10 -36 5 -87 7 -114&#xA;3 l-49 -6 6 -81 c5 -69 19 -128 52 -208 5 -12 -2 -19 -30 -29 -35 -13 -37 -16&#xA;-32 -51 11 -81 110 -239 176 -283 17 -11 31 -24 31 -28 0 -4 -21 -17 -46 -27&#xA;l-45 -20 45 -58 c50 -63 125 -125 192 -157 l44 -21 -36 -17 c-19 -10 -34 -23&#xA;-32 -30 8 -24 151 -88 211 -94 53 -5 57 -8 51 -27 -11 -38 -10 -40 36 -47 88&#xA;-14 220 -9 326 12 121 25 142 20 167 -34 14 -28 17 -67 17 -197 0 -167 9 -210&#xA;45 -224 27 -10 34 -7 52 21 15 22 19 57 23 197 4 147 8 176 25 205 33 56 41&#xA;57 167 33 124 -24 263 -29 334 -11 44 11 44 12 30 34 -15 23 -15 24 33 34 78&#xA;17 161 51 194 81 l31 27 -33 18 -34 17 54 29 c58 32 164 130 192 179 l18 29&#xA;-40 21 -40 20 67 68 c53 53 74 83 99 142 17 41 34 91 38 111 6 35 6 36 -34 48&#xA;-23 6 -41 14 -41 17 0 3 9 22 19 43 25 48 51 159 51 216 l0 43 -52 4 c-44 3&#xA;-106 -2 -171 -15 -7 -1 -13 14 -15 36 -4 42 -9 44 -94 26 -68 -15 -167 -59&#xA;-229 -104 -44 -31 -49 -33 -49 -15 0 26 -1 26 -73 -12 -165 -88 -332 -314&#xA;-402 -543 -14 -44 -37 -154 -53 -245 -26 -152 -30 -165 -50 -168 -12 -2 -22&#xA;-1 -22 2 0 34 -46 304 -65 381 -59 239 -224 464 -417 570 -65 35 -68 36 -68&#xA;15 0 -26 3 -27 -88 34 -85 56 -158 84 -241 92 l-58 7 2 -37z m1937 -203 c-21&#xA;-29 -259 -265 -345 -342 -27 -23 -47 -44 -45 -46 18 -15 302 50 336 77 7 6 15&#xA;8 18 5 9 -9 -82 -64 -141 -86 -60 -22 -140 -39 -213 -44 -53 -4 -56 -6 -163&#xA;-108 -60 -57 -109 -106 -109 -109 0 -13 272 2 373 20 61 11 112 18 115 15 3&#xA;-2 -1 -6 -9 -9 -146 -46 -195 -59 -272 -71 -51 -8 -132 -15 -182 -15 l-90 0&#xA;-94 -92 c-82 -81 -91 -88 -71 -52 12 23 53 77 91 122 l69 80 30 129 c47 198&#xA;60 243 92 307 29 58 48 72 28 22 -12 -32 -82 -368 -77 -372 2 -2 46 40 99 94&#xA;96 97 96 97 116 178 27 108 55 165 115 230 51 57 74 66 39 17 -34 -48 -70&#xA;-127 -85 -186 -18 -69 -16 -69 93 27 41 36 121 102 177 147 57 44 105 85 109&#xA;90 3 6 8 8 11 5 3 -3 -4 -17 -15 -33z m-1692 -197 c76 -69 110 -93 110 -78 0&#xA;26 -36 126 -66 181 -19 35 -33 65 -31 68 9 8 90 -94 117 -148 16 -31 38 -92&#xA;49 -135 20 -78 21 -80 111 -168 50 -48 94 -86 97 -83 8 8 -15 135 -48 271 -16&#xA;66 -27 121 -24 124 13 13 69 -143 110 -308 49 -199 63 -228 172 -356 24 -28&#xA;43 -54 43 -56 0 -3 -40 34 -89 82 l-89 87 -134 6 c-73 4 -160 13 -193 20 -85&#xA;20 -216 59 -211 64 2 2 51 -3 109 -11 57 -9 162 -16 233 -16 l129 0 -104 104&#xA;-104 104 -61 7 c-143 16 -306 72 -345 119 -17 20 -7 21 22 2 34 -22 231 -68&#xA;274 -64 l38 3 -150 145 c-157 151 -235 235 -235 251 0 11 158 -115 270 -215z"></path>
<path d="M1896 6809 c-142 -145 -147 -152 -130 -170 15 -17 19 -18 34 -4 9 8&#xA;25 15 34 15 18 0 237 -183 306 -254 31 -32 33 -39 22 -57 -10 -16 -11 -24 -1&#xA;-35 14 -18 23 -11 112 89 43 49 57 71 49 79 -8 8 -18 6 -37 -6 l-26 -17 -70&#xA;67 -69 68 37 38 c26 27 44 37 62 36 13 -2 26 2 28 8 5 14 -85 114 -102 114&#xA;-21 0 -26 -16 -14 -43 10 -22 7 -31 -20 -71 -18 -25 -34 -46 -37 -46 -4 0 -39&#xA;30 -80 67 l-75 66 22 23 c47 50 97 77 132 71 61 -10 66 6 17 60 -24 26 -44 49&#xA;-45 51 -1 1 -68 -66 -149 -149z"></path>
<path d="M6445 6720 c-3 -5 -2 -18 4 -28 5 -10 7 -23 3 -28 -16 -24 -327 -274&#xA;-341 -274 -8 0 -23 8 -33 17 -17 15 -20 15 -34 1 -15 -14 -5 -29 111 -167 69&#xA;-83 129 -151 131 -151 16 0 94 64 91 73 -2 7 -24 14 -50 17 -49 6 -88 34 -112&#xA;81 -13 25 -12 28 28 66 73 70 278 233 293 233 8 0 23 -9 35 -21 18 -18 23 -19&#xA;35 -7 13 13 5 27 -56 106 -67 87 -91 105 -105 82z"></path>
<path d="M1626 6478 c-15 -23 -66 -102 -113 -176 -78 -125 -83 -135 -66 -148&#xA;16 -11 20 -10 36 11 24 32 34 31 88 -4 252 -163 315 -205 321 -215 4 -6 5 -18&#xA;3 -27 -3 -9 1 -21 9 -28 11 -9 24 5 70 80 53 85 63 119 35 119 -6 0 -18 -9&#xA;-27 -20 -17 -19 -18 -19 -100 34 -45 29 -85 56 -88 59 -4 3 8 25 26 47 27 35&#xA;38 41 64 38 51 -5 44 24 -19 71 -30 23 -61 44 -69 47 -16 6 -30 -22 -16 -31&#xA;16 -10 12 -43 -11 -88 -12 -23 -23 -44 -25 -46 -5 -5 -164 101 -164 109 0 3&#xA;23 32 52 64 49 55 53 58 90 53 27 -4 38 -1 38 8 0 11 -86 85 -99 85 -3 -1 -19&#xA;-19 -35 -42z"></path>
<path d="M6811 6221 c-8 -5 -11 -16 -7 -28 12 -37 -26 -61 -217 -138 l-188&#xA;-77 -23 21 c-12 12 -30 21 -40 21 -21 0 -18 -13 25 -112 16 -36 29 -72 29 -78&#xA;0 -6 8 -10 18 -8 11 2 18 14 20 36 2 22 13 39 35 56 33 25 246 121 253 114 2&#xA;-3 -48 -60 -112 -129 -109 -117 -155 -181 -142 -195 4 -3 103 -8 222 -11 118&#xA;-3 213 -9 211 -13 -9 -14 -275 -130 -299 -130 -14 0 -29 7 -34 17 -6 9 -16 14&#xA;-26 10 -14 -6 -11 -20 24 -118 22 -62 42 -114 44 -116 2 -2 10 -1 19 3 10 3&#xA;17 20 19 42 l3 37 185 87 c102 48 193 87 203 87 9 1 23 -10 29 -24 6 -14 19&#xA;-25 30 -25 10 0 18 2 18 5 0 3 -14 48 -30 100 l-31 95 -204 0 c-113 0 -205 2&#xA;-205 4 0 2 17 21 37 42 20 21 83 90 139 153 l102 114 -41 83 c-23 46 -44 84&#xA;-47 84 -3 0 -11 -4 -19 -9z"></path>
<path d="M1313 5907 c-24 -56 -57 -140 -74 -186 -30 -80 -31 -85 -14 -97 16&#xA;-12 21 -10 37 16 10 17 22 30 26 30 9 0 242 -101 338 -146 47 -22 54 -29 54&#xA;-54 0 -17 7 -30 16 -34 9 -4 18 -5 19 -4 1 2 18 46 37 98 20 52 55 137 77 189&#xA;23 52 41 96 41 98 0 6 -106 63 -117 63 -19 0 -16 -18 7 -47 27 -34 25 -70 -6&#xA;-148 -30 -75 -25 -74 -136 -19 -38 19 -68 40 -68 48 0 7 10 28 23 47 17 26 30&#xA;34 52 34 20 1 31 6 33 18 3 13 -15 26 -69 52 -77 37 -110 35 -74 -5 16 -17 17&#xA;-25 7 -58 -6 -20 -18 -46 -25 -56 -13 -18 -17 -18 -88 14 -41 19 -76 35 -78&#xA;37 -8 5 25 69 52 100 20 23 38 33 58 33 45 0 35 26 -21 55 -27 14 -53 25 -57&#xA;25 -4 0 -27 -46 -50 -103z"></path>
<path d="M1166 5482 c-16 -28 -71 -365 -62 -387 7 -19 36 -20 36 -1 0 36 24&#xA;37 191 11 252 -40 273 -46 278 -75 3 -25 17 -40 36 -40 6 0 16 48 23 111 7 61&#xA;14 116 15 122 1 6 -8 13 -20 15 -17 3 -23 -2 -23 -16 0 -37 -20 -41 -117 -24&#xA;-103 17 -104 18 -83 93 8 28 17 39 38 44 25 6 41 21 42 37 0 7 -127 38 -154&#xA;38 -20 0 -21 -24 -1 -40 16 -13 21 -115 7 -137 -5 -9 -24 -8 -77 3 -128 26&#xA;-118 20 -111 65 11 67 42 119 77 126 28 5 46 19 37 28 -9 9 -128 33 -132 27z"></path>
<path d="M6765 5141 c-45 -11 -70 -27 -100 -63 -25 -29 -27 -38 -23 -101 3&#xA;-63 7 -72 36 -98 40 -36 67 -39 55 -6 -4 12 -8 42 -8 67 0 41 3 46 40 67 72&#xA;41 185 24 185 -27 0 -23 -34 -48 -77 -56 -35 -7 -37 -12 -27 -63 8 -38 29 -40&#xA;90 -11 59 29 77 61 72 121 -11 114 -132 199 -243 170z"></path>
<path d="M1210 4959 c-52 -16 -90 -48 -111 -93 -15 -33 -19 -66 -19 -171 0&#xA;-161 7 -205 30 -205 11 0 20 10 23 29 3 16 14 32 24 36 10 4 114 9 230 12&#xA;l213 6 6 -32 c5 -21 12 -31 25 -31 18 0 19 9 19 124 0 115 -1 124 -20 129 -16&#xA;4 -20 0 -20 -18 0 -34 -17 -42 -102 -49 l-78 -6 0 59 c0 122 -55 200 -150 214&#xA;-19 3 -51 1 -70 -4z m118 -139 c11 0 42 -71 42 -96 l0 -31 -111 -8 c-61 -4&#xA;-112 -5 -114 -3 -4 4 -8 47 -6 75 2 49 91 89 156 71 16 -4 31 -8 33 -8z"></path>
<path d="M6668 4759 c-26 -15 -23 -64 4 -83 28 -20 43 -20 62 0 47 46 -10 116&#xA;-66 83z"></path>
<path d="M7160 4645 c-14 -36 -40 -45 -300 -105 -124 -29 -225 -53 -226 -53&#xA;-1 -1 -4 -22 -7 -47 l-6 -45 206 -105 c233 -118 263 -138 263 -181 0 -22 5&#xA;-29 19 -29 16 0 21 12 31 72 18 105 18 132 -1 136 -10 2 -19 -6 -22 -19 -5&#xA;-18 -11 -21 -36 -16 -38 8 -271 114 -289 132 -12 10 12 19 137 49 170 42 202&#xA;43 211 7 3 -13 13 -25 22 -27 19 -2 29 54 32 177 1 77 -15 103 -34 54z"></path>
<path d="M6606 4234 c-31 -30 -10 -94 30 -94 32 0 54 21 54 50 0 33 -23 60&#xA;-50 60 -10 0 -26 -7 -34 -16z"></path>
<path d="M278 578 c-31 -8 -39 -16 -47 -44 -14 -49 -140 -403 -158 -441 -8&#xA;-18 -25 -34 -39 -37 -13 -4 -24 -13 -24 -21 0 -12 18 -15 95 -15 76 0 95 3 95&#xA;14 0 8 -10 18 -21 21 -19 6 -21 12 -16 56 10 84 16 89 108 89 77 0 80 -1 90&#xA;-27 6 -16 14 -47 16 -70 5 -39 3 -42 -21 -49 -14 -3 -26 -12 -26 -20 0 -11 25&#xA;-14 125 -14 97 0 125 3 125 13 0 7 -15 20 -32 28 -30 13 -36 24 -75 139 -110&#xA;319 -136 390 -147 389 -6 -1 -28 -6 -48 -11z m26 -223 c14 -44 26 -85 26 -90&#xA;0 -12 -120 -11 -121 1 -2 19 55 184 62 177 3 -5 18 -44 33 -88z"></path>
<path d="M623 568 c-7 -12 6 -28 22 -28 29 0 35 -40 35 -249 0 -177 -2 -212&#xA;-16 -225 -8 -9 -22 -16 -30 -16 -8 0 -14 -7 -14 -16 0 -14 20 -15 168 -12 149&#xA;3 172 6 217 26 99 46 154 123 163 229 12 148 -67 258 -207 288 -45 10 -332 12&#xA;-338 3z m322 -71 c90 -51 127 -170 90 -293 -16 -56 -52 -96 -107 -118 -44 -19&#xA;-109 -21 -126 -4 -13 13 -18 419 -5 431 16 16 109 6 148 -16z"></path>
<path d="M1500 558 c0 -10 7 -18 15 -18 31 0 35 -38 33 -257 -3 -215 -3 -218&#xA;-25 -228 -13 -5 -23 -15 -23 -22 0 -10 31 -13 125 -13 98 0 125 3 125 13 0 8&#xA;-18 19 -40 26 l-40 12 -1 89 c-1 50 -2 96 -3 103 -1 16 71 21 107 8 19 -7 28&#xA;-20 33 -46 4 -25 11 -35 25 -35 17 0 18 9 18 105 0 97 -1 105 -20 105 -10 0&#xA;-19 -7 -19 -15 0 -33 -38 -55 -95 -55 l-56 0 3 93 3 92 57 3 c72 4 116 -17&#xA;125 -58 3 -17 12 -30 19 -30 11 0 14 18 14 73 l0 72 -190 0 c-174 0 -190 -1&#xA;-190 -17z"></path>
<path d="M1944 571 c-10 -10 -3 -31 11 -31 8 0 24 -9 35 -20 18 -18 20 -33 20&#xA;-197 0 -207 10 -243 76 -284 34 -21 51 -24 131 -24 85 0 94 2 134 30 73 51 83&#xA;83 90 287 6 178 12 208 45 208 8 0 14 8 14 18 0 15 -12 17 -100 19 -81 2 -100&#xA;-1 -100 -12 0 -8 15 -21 34 -29 42 -17 46 -37 46 -205 0 -139 -8 -182 -42&#xA;-218 -50 -53 -149 -48 -192 10 -19 26 -21 45 -24 197 -4 181 0 204 44 221 14&#xA;5 24 15 21 22 -3 9 -36 12 -121 12 -65 0 -119 -2 -122 -4z"></path>
<path d="M2575 555 c-2 -11 -6 -44 -10 -72 -5 -49 -4 -53 15 -53 11 0 20 6 20&#xA;14 0 30 44 67 85 73 l40 5 -2 -214 c-1 -117 -2 -221 -2 -230 -1 -10 -12 -20&#xA;-26 -24 -14 -3 -25 -12 -25 -20 0 -11 23 -14 115 -14 87 0 115 3 115 13 0 7&#xA;-13 18 -30 24 l-30 11 0 226 0 226 36 0 c26 0 43 -8 65 -29 16 -16 29 -37 29&#xA;-45 0 -9 8 -16 20 -16 21 0 21 2 4 115 l-4 30 -205 0 c-198 0 -206 -1 -210&#xA;-20z"></path>
<path d="M3435 570 c-5 -9 7 -24 30 -36 36 -20 45 -53 44 -179 0 -196 -19&#xA;-248 -98 -274 -34 -11 -51 -11 -82 -2 -68 20 -74 39 -77 253 l-4 188 26 11&#xA;c14 7 26 18 26 26 0 10 -26 13 -115 13 -96 0 -115 -3 -115 -15 0 -8 8 -15 19&#xA;-15 39 0 44 -23 49 -218 4 -167 6 -191 26 -226 30 -57 73 -79 166 -84 92 -5&#xA;153 16 193 69 38 51 47 100 47 256 0 148 8 188 42 198 10 4 18 14 18 23 0 15&#xA;-13 17 -96 17 -53 0 -97 -2 -99 -5z"></path>
<path d="M3684 569 c-7 -12 4 -29 20 -29 31 0 35 -28 37 -242 3 -228 -1 -248&#xA;-42 -248 -11 0 -19 -7 -19 -15 0 -13 21 -15 125 -15 105 0 125 2 125 15 0 9&#xA;-13 18 -31 22 -39 7 -49 33 -49 124 l0 69 30 0 c27 0 37 -10 105 -115 l74&#xA;-115 81 0 c62 0 80 3 80 14 0 8 -15 19 -33 25 -24 8 -42 26 -67 68 -19 32 -51&#xA;78 -71 104 l-37 46 34 18 c55 30 81 85 76 162 -3 32 -57 90 -98 103 -43 14&#xA;-332 22 -340 9z m275 -53 c52 -27 67 -105 31 -164 -22 -36 -54 -52 -106 -52&#xA;l-34 0 0 103 c0 67 4 107 12 115 16 16 63 15 97 -2z"></path>
<path d="M4604 571 c-11 -11 -2 -31 14 -31 11 0 26 -8 35 -18 14 -16 17 -44&#xA;17 -188 0 -150 -2 -173 -20 -201 -25 -41 -52 -55 -109 -56 -104 -1 -122 34&#xA;-128 243 -5 165 2 208 37 217 11 3 20 12 20 19 0 11 -24 14 -115 14 -87 0&#xA;-115 -3 -115 -13 0 -7 14 -18 30 -24 l30 -11 0 -161 c0 -88 5 -183 11 -211 21&#xA;-99 93 -146 216 -138 113 6 177 52 203 147 5 20 10 104 10 186 0 120 3 155 16&#xA;173 8 12 22 22 30 22 8 0 14 8 14 18 0 15 -11 17 -96 17 -53 0 -98 -2 -100 -4z"></path>
<path d="M4860 562 c0 -11 8 -22 19 -25 10 -2 26 -15 35 -28 13 -21 14 -49 6&#xA;-218 -9 -198 -19 -241 -55 -241 -8 0 -15 -7 -15 -15 0 -12 17 -15 90 -15 73 0&#xA;90 3 90 15 0 8 -8 15 -19 15 -40 0 -43 21 -36 192 l8 162 24 -54 c13 -30 47&#xA;-117 76 -192 36 -95 57 -138 68 -138 11 0 40 61 100 209 l84 209 6 -87 c4 -47&#xA;7 -133 8 -189 1 -95 -1 -104 -18 -109 -11 -3 -22 -11 -25 -19 -4 -11 14 -14&#xA;104 -14 87 0 110 3 110 14 0 8 -11 17 -25 20 -18 5 -25 15 -29 39 -8 54 -24&#xA;411 -19 425 3 7 16 15 29 18 15 4 24 13 24 25 0 18 -7 19 -81 18 -70 -2 -83&#xA;-5 -94 -23 -7 -12 -41 -92 -76 -178 -34 -87 -65 -158 -68 -158 -4 0 -24 46&#xA;-45 103 -21 56 -54 135 -72 175 l-33 72 -70 0 c-38 0 -76 3 -85 6 -11 4 -16 0&#xA;-16 -14z"></path>
<path d="M5760 560 c0 -8 10 -20 23 -25 28 -12 40 -40 122 -262 36 -98 73&#xA;-197 82 -220 16 -44 40 -56 62 -30 6 8 55 124 109 258 75 187 103 246 120 254&#xA;26 11 31 51 6 41 -9 -3 -47 -6 -85 -6 -71 0 -90 -13 -44 -30 36 -14 32 -36&#xA;-26 -185 -28 -71 -55 -141 -61 -155 -8 -22 -11 -20 -32 40 -13 36 -40 109 -61&#xA;163 -40 106 -41 130 -7 135 13 2 22 10 22 21 0 16 -11 18 -115 17 -96 -1 -115&#xA;-3 -115 -16z"></path>
<path d="M6443 573 c-82 -3 -103 -7 -103 -18 0 -8 7 -15 15 -15 8 0 24 -9 35&#xA;-20 19 -19 20 -33 20 -240 l0 -220 -25 -6 c-14 -3 -25 -12 -25 -20 0 -11 23&#xA;-14 110 -14 89 0 110 3 110 14 0 8 -10 18 -22 22 -13 4 -26 12 -30 18 -4 6 -8&#xA;104 -8 219 0 194 1 208 20 227 11 11 25 20 30 20 6 0 10 9 10 20 0 13 -6 19&#xA;-17 18 -10 -1 -64 -4 -120 -5z"></path>
<path d="M6650 558 c0 -10 6 -18 14 -18 8 0 22 -10 30 -22 13 -19 16 -56 15&#xA;-213 -1 -104 -4 -201 -8 -215 -4 -14 -19 -31 -34 -38 -48 -23 -19 -32 104 -32&#xA;98 0 119 3 119 15 0 8 -14 18 -32 23 l-33 8 -3 92 -3 92 25 0 c21 0 38 -19&#xA;100 -115 l75 -115 81 0 c88 0 104 14 47 40 -21 10 -50 42 -84 94 -29 44 -62&#xA;89 -74 102 l-21 23 42 21 c82 42 100 145 38 216 -43 48 -83 58 -250 58 -134 1&#xA;-148 -1 -148 -16z m298 -64 c21 -24 24 -35 20 -81 -6 -70 -36 -103 -102 -110&#xA;l-46 -6 0 110 c0 60 3 113 8 117 4 4 27 6 52 3 32 -4 51 -12 68 -33z"></path>
<path d="M7230 559 c0 -12 7 -19 20 -19 35 0 40 -32 40 -239 0 -211 -6 -251&#xA;-40 -251 -11 0 -20 -7 -20 -15 0 -12 19 -15 115 -15 87 0 115 3 115 13 0 7&#xA;-13 18 -30 24 l-30 11 0 215 c0 119 3 223 6 232 4 9 18 21 31 26 14 5 23 14&#xA;21 21 -3 8 -41 12 -116 14 -104 2 -112 1 -112 -17z"></path>
<path d="M7510 558 c0 -10 6 -18 14 -18 8 0 22 -10 30 -22 24 -33 24 -429 0&#xA;-452 -8 -9 -22 -16 -30 -16 -8 0 -14 -7 -14 -16 0 -14 19 -16 168 -13 159 4&#xA;170 5 224 32 172 85 211 318 74 445 -63 58 -113 70 -304 74 -149 3 -162 2&#xA;-162 -14z m319 -58 c121 -61 149 -288 46 -379 -52 -45 -155 -67 -183 -39 -9 9&#xA;-12 71 -12 220 0 186 2 208 18 218 22 14 84 5 131 -20z"></path>
<path d="M8110 560 c0 -8 10 -20 22 -25 14 -6 26 -22 29 -40 9 -41 10 -288 2&#xA;-365 -6 -57 -9 -64 -35 -74 -15 -6 -28 -16 -28 -23 0 -10 46 -13 209 -13 l209&#xA;0 11 63 c6 35 11 67 11 70 0 18 -24 3 -63 -38 l-44 -45 -71 0 c-88 0 -92 5&#xA;-92 129 l0 91 48 0 c71 0 90 -8 97 -41 4 -18 13 -29 23 -29 14 0 17 14 19 90&#xA;3 77 1 90 -13 90 -9 0 -18 -9 -21 -21 -7 -26 -41 -39 -104 -39 l-49 0 0 90 0&#xA;90 48 1 c98 3 118 -4 133 -46 9 -23 19 -35 29 -33 11 2 16 19 18 70 l3 67&#xA;-196 -2 c-167 -1 -195 -4 -195 -17z"></path>
</g>
</svg>